<?xml version="1.0" standalone="no"?>
<!DOCTYPE svg PUBLIC "-//W3C//DTD SVG 1.1//EN" "http://www.w3.org/Graphics/SVG/1.1/DTD/svg11.dtd" >
<svg>
<metadata>
Created by FontForge 20090622 at Fri May  4 07:43:29 2018
 By deploy user
 
</metadata>
<defs>
<font id="LemonBird-Regular" horiz-adv-x="133" >
  <font-face 
    font-family="Lemon Bird"
    font-weight="400"
    font-stretch="normal"
    units-per-em="1000"
    panose-1="0 0 0 0 0 0 0 0 0 0"
    ascent="800"
    descent="-200"
    x-height="664"
    cap-height="704.5"
    bbox="-1.125 -200 639 1000"
    underline-thickness="50"
    underline-position="-50"
    unicode-range="U+0020-U+20AC"
  />
<missing-glyph horiz-adv-x="600" 
d="M492 1000v-1200h-380v1200h380zM400 920h-198v-40h78v-44h-80v-40h200v40h-80v44h80v40zM320 765h-120v-125h200v41h-80v84zM280 724v-43h-40v43h40zM400 608h-200v-40h80v-44h-80v-40h120v84h80v40zM400 536h-40v-80h-160v-40h200v120zM400 389h-120v-67h40v28h40v-57
h-120v96h-40v-135h200v135zM400 182h-200v-136h200v136zM360 142v-56h-120v56h120zM400 18h-200v-39h84l-84 -57v-39h200v39h-123l84 57h39v39z" />
    <glyph glyph-name=".notdef" horiz-adv-x="600" 
d="M492 1000v-1200h-380v1200h380zM400 920h-198v-40h78v-44h-80v-40h200v40h-80v44h80v40zM320 765h-120v-125h200v41h-80v84zM280 724v-43h-40v43h40zM400 608h-200v-40h80v-44h-80v-40h120v84h80v40zM400 536h-40v-80h-160v-40h200v120zM400 389h-120v-67h40v28h40v-57
h-120v96h-40v-135h200v135zM400 182h-200v-136h200v136zM360 142v-56h-120v56h120zM400 18h-200v-39h84l-84 -57v-39h200v39h-123l84 57h39v39z" />
    <glyph glyph-name=".null" horiz-adv-x="0" 
 />
    <glyph glyph-name="nonmarkingreturn" horiz-adv-x="333" 
 />
    <glyph glyph-name="space" unicode=" " horiz-adv-x="200" 
 />
    <glyph glyph-name="exclam" unicode="!" horiz-adv-x="179" 
d="M112 208q-16 -33 -50 -15.5t-26 51.5q33 132 25 299q-1 12 -5.5 58t-5.5 74t7.5 62t29.5 49q27 20 45 -1q21 -22 23.5 -53t-2.5 -61q0 -17 5 -168q7 -186 -46 -295zM82 14q-11 -2 -20 2q-26 11 -35 30q-7 13 -7 30q0 18 14 36q8 9 18 15q3 1 14 5q2 0 5 0.5t5 0.5
q7 3 16 -1q11 -1 23 -9q9 -4 16.5 -15t9.5 -21q4 -16 -1 -32q-4 -15 -22 -30q-11 -8 -21 -10q-5 -1 -15 -1z" />
    <glyph glyph-name="quotedbl" unicode="&#x22;" horiz-adv-x="197" 
d="M161 664q-1 -11 -10.5 -14.5t-19 2t-10.5 16.5q-2 19 3 73q1 7 -0.5 21.5t0.5 24.5t9 19q8 10 24 4q19 -9 20 -36t-7.5 -64.5t-8.5 -45.5zM33 675q-2 69 -11 91q-3 7 0 16.5t9 14.5q12 10 23 10q28 0 32 -33q3 -22 2 -33t-4 -33t-4 -33q0 -14 -12 -20t-23.5 0t-11.5 20z
" />
    <glyph glyph-name="numbersign" unicode="#" horiz-adv-x="659" 
d="M344 -2q-19 -19 -44 -11.5t-33 32.5q-5 16 -6 33t3 35.5t8 32.5t11.5 35.5t10.5 32.5q2 4 7 19q-37 1 -74 0l-9 -30q-3 -10 -9 -35t-12.5 -43t-15.5 -33q-17 -25 -45 -21.5t-38 32.5q-17 47 12 128q-36 2 -66 13q-24 9 -24.5 33.5t24.5 32.5q40 13 108 24q6 13 9 22
q13 33 14 37q-39 6 -76 23q-10 5 -10 18.5t10 18.5q42 17 109 26q93 236 94 239q8 19 27.5 23t33 -8.5t6.5 -33.5q-15 -45 -33.5 -109.5t-30.5 -102.5q25 0 51 3q28 2 42 4q58 142 113 223q17 26 48.5 14t20.5 -43q-13 -36 -71 -181q42 9 98 -11q31 -11 30.5 -42.5
t-30.5 -42.5q-16 -6 -34.5 -9t-31 -3.5t-27 -0.5h-17.5q-5 0 -15 -1t-15 -1q-6 -15 -16 -47l-3 -8q36 -1 47 -1q6 0 30.5 2t36 2t29.5 -3t32 -11q12 -6 15 -19.5t-3 -24.5q-39 -85 -220 -59l-15 -54q-3 -12 -9 -38.5t-10 -41.5t-14 -35t-23 -34zM261 318q26 1 79 1l15 42
q2 4 2 5h-1q-12 0 -39.5 -1.5t-42.5 -2.5q-1 -5 -6 -20.5t-7 -23.5z" />
    <glyph glyph-name="dollar" unicode="$" horiz-adv-x="457" 
d="M160 -45q-22 -31 -46.5 -28.5t-42 26.5t-12.5 47q2 50 32 150q-59 31 -70 80q-6 35 18.5 63.5t60.5 15.5l33 -17q13 43 32 97l-23 14q-39 25 -63.5 57t-24 72t38.5 74q70 63 162 46q30 66 74 116q14 15 28 2.5t6 -29.5q-25 -58 -42 -113q42 -21 64 -42q11 -10 2.5 -21.5
t-21.5 -9.5q-10 2 -30 6.5t-30 6.5q-5 -19 -13 -56t-12 -54q9 -3 21 -9q76 -38 112 -82.5t18 -116.5q-17 -74 -63.5 -111.5t-119.5 -31.5q-24 2 -46 7q-1 -4 -4.5 -26.5t-4.5 -29.5t-5 -25.5t-7.5 -28.5t-9 -24t-12.5 -25zM201 496l22 70q-23 -7 -40 -18t-14 -21
q7 -17 32 -31zM226 238q55 -21 78 2q61 57 -40 101l-12 5q-17 -63 -26 -108z" />
    <glyph glyph-name="percent" unicode="%" horiz-adv-x="513" 
d="M70 58q-35 -1 -45 31t11 52q7 22 17.5 42.5t30.5 52.5t24 39q61 108 77 132q60 94 192 276q14 16 32 16t28.5 -16.5t0.5 -35.5q-31 -56 -91.5 -156l-84.5 -142q-14 -24 -40 -82t-51 -101t-56 -72q-7 -37 -45 -36zM108 441q-30 -8 -53 11t-31 52q-17 66 28 117
q10 11 24 11q9 9 23 9q33 2 51.5 -30t21.5 -68q2 -36 -15 -65t-49 -37zM94 513l3 2q4 8 2 28q-2 11 -6 19q-6 -14 -4 -36q0 -2 2.5 -6.5t2.5 -6.5zM355 118q-56 -2 -83 44t-12 100q13 48 52.5 85t88.5 50q13 3 22 -6q42 -6 60 -59.5t6 -96.5q-15 -47 -52 -81.5t-82 -35.5z
M354 219q37 23 40 49q2 12 -11 38q-13 -25 -20 -41q-10 -27 -10 -44q1 -1 1 -2z" />
    <glyph glyph-name="ampersand" unicode="&#x26;" horiz-adv-x="529" 
d="M135 29q-52 9 -82.5 50t-32.5 95q-4 101 95 191q-22 48 -34 94q-34 130 32 195q29 29 72 33t78 -15q61 -32 74 -90.5t-10 -115t-66 -107.5l9 -13q25 -42 46 -68q30 57 50 83q13 16 30 9t13 -28q-8 -57 -35 -130q45 -43 93 -61q35 -12 41.5 -47t-16 -59.5t-57.5 -11.5
q-63 21 -124 71q-77 -93 -176 -75zM212 456q43 56 22 102q-11 21 -25.5 22.5t-22.5 -19.5q-8 -24 23 -99zM200 140q20 9 41 30q-39 43 -76 101q-29 -30 -37 -57q-14 -44 8 -70.5t64 -3.5z" />
    <glyph glyph-name="quotesingle" unicode="'" horiz-adv-x="108" 
d="M32 675q-2 69 -11 91q-3 7 0 16.5t9 14.5q12 10 23 10q28 0 32 -33q3 -23 2.5 -32.5t-4 -33.5t-4.5 -33q0 -14 -11.5 -20t-23.5 0t-12 20z" />
    <glyph glyph-name="parenleft" unicode="(" horiz-adv-x="330" 
d="M246 -26q-20 -16 -47.5 -13.5t-45.5 19.5q-85 77 -113.5 205.5t-14.5 265.5q10 136 88 235q36 48 93.5 85t106.5 23q11 -3 15 -12.5t0 -20.5q-6 -14 -17 -27t-26 -27.5t-22 -22.5q-29 -32 -51 -70q-45 -80 -53 -183q-5 -98 15.5 -192.5t77.5 -145.5q19 -16 25 -41.5
t-6 -48.5q-8 -13 -25 -29z" />
    <glyph glyph-name="parenright" unicode=")" horiz-adv-x="273" 
d="M48 -35q-20 14 -26 35.5t7 43.5q7 12 24.5 27t21.5 22q11 15 24 63q12 53 20 147q9 136 -13 224q-6 26 -19 55t-23.5 47.5t-30.5 51t-28 47.5q-14 25 7 46t45 6q205 -121 195 -491q-8 -152 -31 -216q-10 -25 -26 -50.5t-40 -47.5t-50.5 -25t-56.5 15z" />
    <glyph glyph-name="comma" unicode="," 
d="M43 -46q-7 9 -2.5 21t13.5 23l9 10l-18 4q-25 6 -24.5 34.5t24.5 33.5q33 6 54.5 -19.5t10.5 -56.5q-9 -23 -32.5 -41.5t-34.5 -8.5z" />
    <glyph glyph-name="hyphen" unicode="-" horiz-adv-x="333" 
d="M167 303q-10 0 -42 -1.5t-53.5 0t-40.5 7.5q-11 4 -11 27.5t11 27.5q19 6 40.5 8.5t54 3.5t41.5 2q46 6 71 6q3 0 13 1.5t15.5 2t13 -0.5t13.5 -4.5t11 -9.5q9 -11 9 -29.5t-9 -26.5q-8 -10 -19 -12.5t-29 -0.5t-21 2q-45 0 -68 -3z" />
    <glyph glyph-name="period" unicode="." horiz-adv-x="145" 
d="M34 -2q-14 11 -14 34q0 18 14 35q12 12 21 17q30 17 57 -8q11 -10 13 -27.5t-5 -29.5q-7 -11 -17 -21q-35 -30 -69 0z" />
    <glyph glyph-name="zero" unicode="0" horiz-adv-x="376" 
d="M207 72q-51 -22 -88.5 -10t-62 50t-36 82t-11.5 86q0 103 29 207.5t90 165.5q14 12 29 11t27 -11q58 -1 97.5 -39t54.5 -95.5t13.5 -127.5t-19 -133.5t-50 -114.5t-73.5 -71zM152 175q9 -18 21 3t20 46q27 75 30 155q2 56 -19.5 126.5t-38.5 67.5q-5 -1 -8.5 -9.5
t-6 -24.5t-4.5 -32.5t-3 -40t-2 -40.5t-2 -40t-1 -32q-6 -122 14 -179z" />
    <glyph glyph-name="one" unicode="1" horiz-adv-x="299" 
d="M92 55q-8 31 -10.5 72t-1.5 65t4.5 79.5t4.5 66.5q4 75 7 111q-25 -15 -52 -23q-22 -6 -31.5 16t10.5 33q34 19 59 57t36 81q2 12 4 19q5 29 31.5 37t51 -7.5t24.5 -44.5q-1 -50 -8.5 -147.5t-8.5 -144.5q-1 -28 2 -135.5t-4 -134.5q-4 -29 -30.5 -39t-53.5 1.5t-34 37.5
z" />
    <glyph glyph-name="two" unicode="2" horiz-adv-x="379" 
d="M99 92q-38 4 -56 33.5t0 63.5q72 140 77 248q1 14 0.5 29t-1.5 30t-6 27t-12 19t-20 5.5t-30 -12.5q-19 -13 -34.5 7.5t1.5 34.5q60 52 114.5 38.5t81.5 -89.5q42 -123 -20 -304q89 7 110 8q25 1 41.5 -12.5t20.5 -33t0 -39.5t-20.5 -34t-41.5 -15q-21 -1 -68.5 -4
t-68.5 -3t-68 3z" />
    <glyph glyph-name="three" unicode="3" horiz-adv-x="340" 
d="M86 51q-44 21 -54 69t16 88q17 28 53 29.5t51 -29.5q1 -3 9 -17q5 5 7 8q21 25 17 53t-20 50t-40 39q-34 24 -30 65t45 53q23 7 30.5 30.5t-4.5 42.5q-3 5 -6.5 9t-7 6.5t-8.5 4l-8.5 2.5t-9.5 0.5t-9 -0.5t-10 -1.5t-9.5 -2t-10.5 -3t-9 -2.5q-23 -7 -33.5 13t4.5 37
q42 50 104.5 46t100.5 -58q60 -84 -4 -178q60 -67 60 -155.5t-66 -155.5q-34 -33 -73.5 -46t-84.5 3z" />
    <glyph glyph-name="four" unicode="4" horiz-adv-x="500" 
d="M237 -38q-26 -8 -47 20q-5 6 -8 11.5t-4.5 12t-2 10.5t0.5 12t1.5 10.5t3 13.5t3.5 13q4 16 5 24q-56 -5 -106 -2q-29 2 -48.5 21t-20.5 48q-7 95 -2.5 226t34.5 222q7 21 28 20.5t28 -20.5q14 -42 22.5 -96.5t11 -84t6 -106.5t4.5 -90q11 1 31.5 2.5t30.5 1.5
q14 79 42 127q10 19 30.5 10t15.5 -29q-11 -40 -11 -100q26 4 88 10q2 0 11 2t18 3.5t13 1.5h6q31 0 52 -25.5t17 -57.5t-34 -47q-24 -12 -43 -15.5t-46.5 -4t-46.5 -2.5q-9 -2 -27 -4q2 -58 -5 -94q-4 -29 -40 -41z" />
    <glyph glyph-name="five" unicode="5" horiz-adv-x="372" 
d="M138 71q-55 10 -78.5 58t0.5 97q9 19 30.5 23.5t38.5 -5.5q24 -12 34 -25q15 23 16 34q7 90 -90 102q-25 3 -43.5 19.5t-15.5 40.5q2 21 -2.5 70.5t-0.5 87.5t25 61q1 2 5 4q-1 4 3.5 6.5t13 3.5t15 1.5t17 1t12.5 0.5q23 1 164 4q37 0 53 -31q15 -29 -7 -46
q-16 -13 -47 -9q-10 0 -28.5 1.5t-27.5 1.5q-2 0 -85 6v-2q1 -2 1 -3q0 -15 -0.5 -52.5t0.5 -52.5q96 -22 141 -109t4 -183q-21 -51 -60 -82.5t-88 -22.5z" />
    <glyph glyph-name="six" unicode="6" horiz-adv-x="311" 
d="M158 9q-61 5 -96.5 45t-44 98.5t-5.5 112.5t14 105q9 42 26 84.5t43 86.5t64.5 71t82.5 26q19 0 27.5 -14t3 -30t-21.5 -23q-12 -5 -22.5 -15t-18.5 -25.5t-13.5 -29t-11.5 -35t-8.5 -32.5t-6.5 -33.5t-5 -25.5q0 -3 -1.5 -9.5l-2.5 -10.5q19 -2 35 -6q43 -15 71 -57
t32 -90.5t-7.5 -94.5t-47 -74.5t-86.5 -23.5zM163 155l3 8q0 2 0.5 5.5t0.5 5.5q6 32 -6 46q-4 4 -12 10q2 -39 13 -70q1 -2 1 -5z" />
    <glyph glyph-name="seven" unicode="7" horiz-adv-x="286" 
d="M147 73q-20 -27 -53.5 -33t-59 13.5t-24.5 56.5q3 112 79 310q8 22 19.5 65.5t17.5 62.5q-4 0 -12 0.5t-12 0.5q-31 3 -50 15t-18 32.5t18 32.5q61 44 156 19q44 -11 58.5 -38t7.5 -73q-6 -42 -18.5 -84.5t-31.5 -97t-27 -80.5q-4 -15 -16 -92.5t-34 -109.5z" />
    <glyph glyph-name="eight" unicode="8" horiz-adv-x="368" 
d="M96 32q-60 19 -78 76t-0.5 117t53.5 100q8 10 26 28q-39 63 -39 111q-1 43 27 97t69.5 76.5t88.5 -26.5q2 -2 7 -12q2 0 3 1q41 11 72 -18t33 -71q3 -60 -64 -146q-12 -15 -38 -43q24 -43 27 -54q37 -104 -12 -169q-29 -39 -80 -60t-95 -7zM192 449q36 41 37 59
q0 -5 -4 4q-8 22 -10 39l1 1v3q-54 -16 -24 -106zM145 159q1 0 1 0.5t1 0.5q42 22 23 73q-14 -17 -19 -31q-5 -18 -5 -40v-1q-1 -1 -1 -2z" />
    <glyph glyph-name="nine" unicode="9" horiz-adv-x="371" 
d="M212 72q-9 10 -15.5 23t-10.5 24t-6.5 29t-3.5 27.5t-0.5 30.5t1 28t2.5 30t2 26l3 55q-10 -10 -16 -15q-52 -34 -95.5 -11t-56.5 81q-15 66 8.5 134t78.5 104q22 14 48 18t48 -3t36 -27.5t12 -49.5q21 5 40 -5t25 -33q9 -29 9.5 -61.5t-4.5 -85.5l-6 -63q-8 -109 5 -195
q7 -44 -32 -71t-72 10zM146 467q6 7 18 19l27 32q14 18 15 20q3 8 6 12q-24 5 -36 -6.5t-23 -41.5q-6 -18 -7 -35z" />
    <glyph glyph-name="colon" unicode=":" horiz-adv-x="152" 
d="M41 388q-14 11 -14 34q0 18 14 35q12 12 21 17q30 17 57 -8q11 -10 13 -27.5t-5 -29.5q-7 -11 -17 -21q-35 -30 -69 0zM41 -2q-14 11 -14 34q0 18 14 35q12 12 21 17q30 17 57 -8q11 -10 13 -27.5t-5 -29.5q-7 -11 -17 -21q-35 -30 -69 0z" />
    <glyph glyph-name="semicolon" unicode=";" horiz-adv-x="145" 
d="M34 388q-14 11 -14 34q0 18 14 35q12 12 21 17q30 17 57 -8q11 -10 13 -27.5t-5 -29.5q-7 -11 -17 -21q-35 -30 -69 0zM43 -46q-7 9 -2.5 21t13.5 23l9 10l-18 4q-25 6 -24.5 34.5t24.5 33.5q33 6 54.5 -19.5t10.5 -56.5q-9 -23 -32.5 -41.5t-34.5 -8.5z" />
    <glyph glyph-name="question" unicode="?" horiz-adv-x="335" 
d="M70 224q-23 56 -18.5 131t34.5 127q10 17 44.5 52.5t58.5 69.5t20 62q0 5 1 7h-3q-11 4 -43 -9q-21 -8 -41.5 -22t-17.5 -25q7 -21 -7.5 -36.5t-35.5 -14.5t-31 20q-28 54 9.5 105.5t102.5 73.5t112 2q27 -11 42 -33t17 -48t-3 -52t-15 -51q-13 -33 -52.5 -81t-51.5 -70
q-16 -29 -17.5 -68t3.5 -70t-2 -70q-5 -28 -27.5 -36t-46 3t-32.5 33zM108 26q-15 13 -15 36q0 19 15 36q9 11 22 18q32 18 60 -8q12 -11 14 -29t-6 -31q-9 -14 -18 -22q-16 -14 -35.5 -14t-36.5 14z" />
    <glyph glyph-name="at" unicode="@" horiz-adv-x="575" 
d="M154 138q-82 63 -116 150t-6 184q30 107 129 161t207 23q105 -30 154 -120q27 -48 32.5 -104t-17.5 -107q-19 -37 -56 -47t-73 10q-22 12 -42 33q-17 -37 -57 -56q-48 -20 -88.5 7t-51.5 77q-11 48 7.5 92.5t59.5 69.5q33 21 68.5 15t52.5 -40q17 2 32 -8t19 -27
q7 -33 23 -56q2 -2 20 -17q-1 5 1 18.5t2 17.5q0 17 -5 39q-16 60 -71.5 91.5t-117.5 19.5q-71 -12 -109 -71t-30 -132q12 -95 125 -166q54 -35 96 -36q35 -1 61 38q13 21 37.5 22.5t40.5 -16t8 -42.5q-18 -57 -60 -81.5t-91.5 -18.5t-97.5 26.5t-86 50.5zM275 358
q6 5 15 28q16 53 23 68q-25 -2 -39.5 -31t-8.5 -56q3 -11 4.5 -12t5.5 3z" />
    <glyph glyph-name="A" unicode="A" horiz-adv-x="421" 
d="M326 -32q-39 46 -57 142q-52 -2 -76 -8q-28 -7 -48 11q-18 -52 -33 -81q-15 -30 -50.5 -24t-44.5 37q-11 30 -5 75.5t16 77l24 77t19 74.5q2 14 8 62t10.5 70.5t16.5 57.5t30 61q21 29 54 29.5t53 -29.5q73 -111 115 -301q5 -21 15 -58.5l16.5 -63t14 -64.5t7.5 -63
t-3 -60q-4 -26 -35 -34t-47 12zM176 222q32 15 71 15q-1 2 -1 5q-22 98 -43 158q-7 -78 -10 -94q-3 -17 -17 -84z" />
    <glyph glyph-name="B" unicode="B" horiz-adv-x="344" 
d="M70 -72q-25 2 -43 19t-17 41l11.5 194.5t13 228.5t8.5 194q2 19 12 28q7 15 20 24q57 40 110.5 16.5t92.5 -75t51 -104.5q26 -113 -69 -189q90 -83 59 -199q-23 -82 -94 -133.5t-155 -44.5zM124 375q46 18 66 41.5t6 66.5q-8 21 -19.5 34.5t-21.5 18t-28 10.5
q0 -25 -0.5 -53.5t-1.5 -63.5t-1 -54zM124 58q59 22 73 82q9 40 -12 62.5t-65 42.5q-2 -100 4 -187z" />
    <glyph glyph-name="C" unicode="C" horiz-adv-x="390" 
d="M160 -27q-59 27 -94 94.5t-50 146.5q-16 90 7 175.5t85 150.5q28 29 60.5 51t70 35.5t73.5 2.5t60 -49q14 -22 3 -41.5t-33 -23t-42 9.5q-19 16 -71 -42.5t-62 -84.5q-30 -69 -10 -155q20 -97 54 -126q3 -3 5 -4q12 5 33.5 33.5t25.5 32.5q25 25 65 11t35 -52
q-11 -85 -73.5 -143t-141.5 -22z" />
    <glyph glyph-name="D" unicode="D" horiz-adv-x="367" 
d="M115 -20q-38 0 -63.5 27t-33.5 67q-11 51 3.5 149.5t15.5 119.5q2 51 -5 146.5t-7 139.5q-18 20 -15 50.5t29 41.5q40 19 78 11.5t68.5 -26t58 -52t46.5 -67t34 -69.5q45 -116 27.5 -226t-92.5 -209q-23 -30 -39.5 -48.5t-46 -36.5t-58.5 -18zM145 162q12 12 18 21
q92 140 33 280q-28 66 -65 101q-5 6 -13 10q3 -31 12 -85.5t14.5 -100.5t4.5 -87q0 -13 -2 -41l-3 -42q-1 -9 0 -29t1 -27z" />
    <glyph glyph-name="E" unicode="E" horiz-adv-x="389" 
d="M79 11q-20 4 -34.5 24t-14.5 41q0 59 19.5 166t22.5 153q1 23 2.5 70t3 74.5t9.5 66t22 70.5q6 14 20 19t29 1q81 39 189 20q21 -4 32.5 -23t8.5 -40t-18.5 -33.5t-36.5 -14.5q-27 -3 -76 2t-67 5q0 -27 2 -121t-1 -121q0 -5 -1 -9q22 7 37 6q33 0 46.5 -32t-10.5 -55
q-29 -27 -88 -31q-12 -98 -12 -100q17 3 47 9.5t43 8.5q34 6 60.5 -17.5t26 -56.5t-35.5 -49q-119 -55 -225 -33z" />
    <glyph glyph-name="F" unicode="F" horiz-adv-x="365" 
d="M181 13q0 -47 -37.5 -61t-72.5 8.5t-28 61.5q-1 85 5 182q-36 12 -38 51.5t39 54.5q1 0 3 1t3 1q20 263 21 352q-14 18 -7 41.5t31 31.5q31 9 121 16q88 7 118 -25q26 -28 12 -63.5t-53 -36.5q-17 0 -48.5 5t-43.5 6q-14 1 -41 1q1 -102 9 -306l27.5 7t33.5 7.5t27 1.5
q34 -3 53.5 -32t-0.5 -61q-22 -31 -55.5 -40.5t-81.5 -9.5q0 -22 1 -61.5t1.5 -71.5t0.5 -61z" />
    <glyph glyph-name="G" unicode="G" horiz-adv-x="416" 
d="M255 15q-50 -35 -99 -22t-84 60q-43 58 -54 132t-5 169q2 30 6 64t11.5 76.5t19.5 79.5t28 73t38.5 58.5t49 33.5t61.5 1t75 -42q17 -14 11.5 -36.5t-24 -31t-38.5 1.5q-52 36 -76 -76q-14 -66 -17 -188q-3 -124 5 -161q3 -16 9 -31q1 -4 4.5 -11t5.5 -10q3 7 12 16
q12 107 57 174q18 28 50 33t57 -14.5t25 -53.5q0 -48 11 -133.5t12 -102.5q3 -33 -22 -53t-58.5 -16.5t-49.5 30.5q-10 -12 -21 -20z" />
    <glyph glyph-name="H" unicode="H" horiz-adv-x="394" 
d="M337 7q-16 -28 -48.5 -33t-58 15t-24.5 54q1 30 12 86.5t13 81.5q4 48 4 107q-24 -2 -72 0q1 -47 3.5 -95.5t-10.5 -99t-43 -75.5q-30 -26 -64.5 -12t-37.5 54q-2 24 7 68t10 60q3 50 1 149q0 16 -1 67.5t-1 77t2 67.5t8 76t16 65t42 31t42 -31q14 -45 20.5 -101.5
t5.5 -106.5t-1 -107q48 6 70 14q-1 15 -3.5 61t-3 68.5t-0.5 59.5t3 68t10 61q4 16 17.5 25t29 9t29 -9t17.5 -25q30 -123 46 -370q6 -82 7.5 -126t-9 -116t-38.5 -118z" />
    <glyph glyph-name="I" unicode="I" horiz-adv-x="216" 
d="M171 108q-19 -44 -64 -53t-77 19.5t-16 76.5q13 41 19.5 88t10 107.5t6.5 89.5q14 118 35 249q1 13 16.5 19.5t25.5 -1.5q24 -17 39 -50.5t19 -69t5.5 -73.5t-0.5 -65q0 -24 4.5 -103.5t0 -134t-23.5 -99.5z" />
    <glyph glyph-name="J" unicode="J" horiz-adv-x="376" 
d="M103 80q-56 29 -81.5 100t2.5 126q12 22 37 24.5t43 -14.5q6 -5 10.5 -10l7.5 -8.5t6.5 -10.5t5 -9.5t5.5 -12t5 -12.5l7.5 -18l6 -14.5t5.5 -8.5t8 -4t10.5 4t16.5 11q56 42 47 169q-5 60 -33 173t-34 167q-2 19 11 31.5t30 15t33.5 -6.5t20.5 -27q9 -47 37.5 -138.5
t43.5 -151t9.5 -139t-46.5 -142.5q-41 -61 -97.5 -92t-116.5 -2z" />
    <glyph glyph-name="K" unicode="K" horiz-adv-x="485" 
d="M304 98q-9 5 -37.5 22.5l-53 33t-45.5 31.5q-8 -32 -6 -62q4 -52 -43 -68q-42 -14 -80 10q-41 28 -25 78q31 94 50 159q-18 50 6 97q14 27 35 49q47 186 46 331q0 27 20 37.5t42 -0.5t25 -37q14 -101 1 -219q97 72 148 89q25 9 46.5 -1.5t32 -30.5t9 -44.5t-18.5 -42.5
q-137 -145 -225 -191q26 -22 28 -23q23 -16 67 -43t59 -37q24 -16 32.5 -41.5t1 -47.5t-23.5 -40.5t-40.5 -21t-50.5 12.5z" />
    <glyph glyph-name="L" unicode="L" horiz-adv-x="342" 
d="M282 44q-46 -9 -80 -11.5t-74 3t-67 31t-38 69.5t-13 93.5t3.5 100t13 96l16.5 99.5t12 93q2 25 22 35.5t40 0.5t21 -36q3 -54 6 -169t7 -175q0 -5 6 -35.5t4 -44.5q3 -5 5 -11q19 -3 57 -2.5t59 -1.5q32 -5 44.5 -36t-0.5 -62t-44 -37z" />
    <glyph glyph-name="M" unicode="M" horiz-adv-x="495" 
d="M341 107q-14 37 -22 86t-9.5 77t-3.5 89q-1 14 0 29q-18 -36 -35 -54q-26 -30 -57.5 -28.5t-40.5 37.5q-8 34 -11 51q-2 -8 -5.5 -24t-5.5 -24q-7 -28 -12 -60.5t-10 -81.5t-7 -67q-1 -12 -11 -23.5t-23.5 -16.5t-27 -4t-24 16.5t-12.5 43.5q-12 137 0 213q5 31 10 93.5
t13.5 110t28.5 88.5q14 28 50.5 33t55.5 -19q44 -57 70 -130q42 61 81 87q20 14 46 6.5t37 -28.5q15 -28 23 -63.5t9.5 -57t2.5 -67.5q5 -124 32 -272q9 -45 -20 -71.5t-67.5 -18.5t-54.5 50z" />
    <glyph glyph-name="N" unicode="N" horiz-adv-x="397" 
d="M97 102q-22 -15 -50.5 -3.5t-33.5 37.5q-2 24 -2 31t4 28.5t5 31.5q3 24 1 109q-9 163 -2 227q4 30 23.5 31.5t57.5 -20.5q37 -20 81.5 -77.5t57.5 -87.5q15 163 20 195q4 26 25 37.5t44 8t41 -20.5t18 -43q-6 -286 -59 -443q-13 -39 -56.5 -47t-63.5 31q-20 40 -61 170
q2 -37 3 -71.5t-12 -69t-41 -54.5z" />
    <glyph glyph-name="O" unicode="O" horiz-adv-x="376" 
d="M133 54q-54 16 -85 67.5t-36.5 117.5t8.5 138t43.5 130.5t76.5 94t100 29.5q15 13 36 13.5t36 -14.5q29 -28 42.5 -73t11.5 -101t-7 -96t-15 -93q-6 -34 -16.5 -65t-28 -65t-40.5 -54t-55 -31.5t-71 2.5zM175 183q9 7 16.5 18.5t13 28.5t9 30.5t6 35.5t4 32t3 32t1.5 24
q3 68 0 141q-45 -24 -65 -182q-10 -81 0 -126q4 -24 12 -34z" />
    <glyph glyph-name="P" unicode="P" horiz-adv-x="323" 
d="M117 59q-25 -30 -68 -12.5t-38 56.5q4 35 22.5 119.5t20.5 133.5q12 217 18 262q3 23 18 37t34 16q1 1 2 1q43 21 95.5 10t75.5 -55q19 -35 15.5 -77t-26.5 -75q-40 -57 -94 -57h-6q0 -66 -1 -99q-3 -59 -7 -93t-19.5 -84t-41.5 -83zM177 510q4 1 13 1t15 2t10 10
q6 13 8 36t-2 29q-3 4 -8 7.5t-9.5 4.5t-10 1.5t-9 0.5h-6.5l-4 -1z" />
    <glyph glyph-name="Q" unicode="Q" horiz-adv-x="421" 
d="M317 50q-30 15 -57 52q-29 -33 -65 -44q-54 -19 -93.5 1t-58 65t-26.5 92t-6 92q2 57 11.5 108.5t29 104t56.5 92.5t88 60q19 8 33.5 0t21.5 -24q22 13 46 5q32 -10 50 -40t23 -62t2 -79.5t-7 -72.5t-11 -63q-12 -66 -27 -112q1 -2 8 -12l11 -16q4 -8 11 -14q0 -2 9 -11
q3 -4 10 -11q2 -2 4 -2q23 -11 29.5 -38.5t-6.5 -47.5q-13 -23 -38.5 -29t-47.5 6zM161 195l5 8q53 119 63 212q8 72 3 109q-1 9 -6 26t-6 23q-29 -26 -46 -77.5t-20.5 -88.5t-4.5 -91q0 -88 12 -121z" />
    <glyph glyph-name="R" unicode="R" horiz-adv-x="406" 
d="M164 53q-11 -36 -46.5 -47.5t-65 8t-28.5 58.5q1 48 10 211q-18 18 -23 40.5t9 43.5q4 5 11 13t8 9q6 101 27 162q-22 12 -20.5 40.5t30.5 35.5q32 9 66 13t72.5 1t67.5 -15.5t47.5 -41t17.5 -70.5q-4 -72 -85 -133q-9 -7 -72 -41q78 -56 185 -147q22 -18 21.5 -45.5
t-17.5 -47t-41 -28.5t-50 9q-44 32 -108 87q-2 -68 -16 -115zM187 482q54 32 38 59q-8 14 -32 17z" />
    <glyph glyph-name="S" unicode="S" horiz-adv-x="332" 
d="M309 162q-9 -44 -42.5 -74t-75.5 -36.5t-82 2t-66 41t-23 80.5q2 34 31.5 52.5t60.5 -0.5q5 -3 18.5 -15.5t21.5 -16.5q5 -3 9.5 -6t6.5 -3.5t4 -2t3 1.5t2 5t4 10q5 4 1.5 19.5t-5 23t-10 23.5l-12 23t-12 21.5t-10.5 17.5q-4 8 -22 39t-24.5 45l-17.5 39.5t-15.5 48
t-4.5 45.5q0 46 27.5 98t68.5 71t89 -30q15 -18 6.5 -40.5t-32.5 -22.5q-17 0 -25 -11t-6.5 -30t7 -39t16.5 -45.5t19 -42.5l18 -37t11 -21q23 -46 35.5 -75t22.5 -75t3 -83z" />
    <glyph glyph-name="T" unicode="T" horiz-adv-x="309" 
d="M54 113q-11 19 -17 39t-5.5 46.5t1.5 41.5t6 48.5t6 42.5q2 17 10 77t14.5 99t16.5 76q4 10 7 14q-7 0 -21 1.5t-22 2.5q-25 2 -35 21.5t0 39t35 21.5q30 3 135 5q5 0 21 0.5t21.5 0.5t17.5 -1.5t18 -5t14.5 -10t15.5 -16.5q7 -9 6.5 -22t-6.5 -22l-1 -2q-2 -3 -3 -5
q-22 -30 -49 -27q-21 1 -68 7q0 -1 0.5 -1t0.5 -1q7 -28 9 -63t2 -54.5t-3.5 -67t-3.5 -56.5q-1 -19 1 -72t-2.5 -89.5t-18.5 -67.5q-15 -31 -51 -29.5t-52 29.5z" />
    <glyph glyph-name="U" unicode="U" horiz-adv-x="422" 
d="M270 84q-54 -34 -104.5 -23t-89 51.5t-52.5 94.5q-37 146 27 374q8 28 38.5 28.5t38.5 -28.5q13 -52 14 -148.5t6 -133.5q13 -92 37 -92q12 0 24 25q18 34 27 83t10 78.5t2 87.5q0 15 -2 56t-1 62.5t12 50.5t34 46q13 10 36 10t37 -10q23 -17 35 -44.5t12 -66.5t-1.5 -65
t-9.5 -73t-9 -57q-7 -57 -12 -84.5t-18 -79t-36 -86t-55 -56.5z" />
    <glyph glyph-name="V" unicode="V" horiz-adv-x="501" 
d="M142 72q-15 32 -23.5 68.5t-16 84t-12.5 71.5q-23 102 -78 293q-8 26 11 46.5t46 20t38 -26.5q76 -179 98 -241l18 -54q12 21 34 63q11 21 32 78t43.5 96t55.5 60q22 13 45.5 5.5t36.5 -27.5q8 -12 12.5 -25.5t7 -25.5t1 -28.5l-2.5 -27t-7 -29t-8.5 -27t-11.5 -28.5
l-11.5 -25.5t-13 -26t-11.5 -23.5q-59 -122 -141 -271q-22 -39 -72.5 -40.5t-69.5 40.5z" />
    <glyph glyph-name="W" unicode="W" horiz-adv-x="613" 
d="M240 55q-27 -45 -74.5 -36t-64.5 54q-9 21 -15.5 43.5t-12 50.5t-8 43t-8 51.5t-6.5 45.5q-5 33 -20.5 106t-19.5 113q-4 30 27.5 41.5t51.5 -8.5q72 -69 109 -232q19 38 45 58q26 22 57 14.5t42 -40.5l6 -18l11.5 33t14.5 40q9 23 32 76t36.5 93t20.5 80q4 23 20 36.5
t36.5 14t39.5 -5.5t31.5 -23.5t11.5 -39.5q-3 -48 -18 -96.5t-43 -110.5t-38 -90q-2 -4 -8.5 -23.5t-9 -25t-9 -23.5t-10 -25t-10 -22.5t-11.5 -24l-12.5 -21.5t-14 -22l-15 -20t-17.5 -20q-23 -24 -60.5 -19.5t-53.5 34.5q-1 4 -4 8q-8 -53 -29 -89z" />
    <glyph glyph-name="X" unicode="X" horiz-adv-x="477" 
d="M289 91q-20 6 -35.5 19.5t-28.5 40t-18 40t-16 46.5q-66 -94 -138 -82q-18 3 -29.5 19.5t-13.5 36.5q-1 25 9 44t37 45.5t32 32.5q33 41 35 44q-62 104 -72 161q-5 26 11.5 45.5t41.5 18.5t40 -25q12 -20 62 -91q108 129 217 146q29 4 40.5 -21.5t-13.5 -41.5
q-51 -32 -89 -77.5t-82 -115.5l22 -42q6 -14 27.5 -52.5t34 -69t12.5 -55.5q1 -33 -26.5 -53.5t-59.5 -12.5z" />
    <glyph glyph-name="Y" unicode="Y" horiz-adv-x="433" 
d="M89 -5q-54 30 -72 89t9 114q11 23 39 26t44 -15q7 -7 19.5 -28t24 -32t26.5 -9q48 7 76 118q0 1 0.5 3t0.5 4q-47 -26 -102 -2q-50 21 -71.5 79t-16.5 119t27 107q16 25 39 25t39 -23.5t5 -50.5q-6 -14 -9 -46.5t2.5 -65.5t21.5 -39q20 -7 39.5 18.5t33.5 66.5
q0 74 12 122q8 33 36.5 43.5t56.5 -3t36 -40.5h1q28 -106 10 -285q-18 -162 -101 -244q-47 -48 -105.5 -63.5t-120.5 12.5z" />
    <glyph glyph-name="Z" unicode="Z" horiz-adv-x="431" 
d="M68 -3q-32 12 -47.5 39t-8.5 61q9 47 33 92t54.5 83l62 74t62.5 78t49 82q-10 0 -33 -1.5t-33 -0.5q-63 4 -94 25q-25 17 -18.5 51.5t40.5 30.5q26 -3 58.5 -3t49.5 1t61.5 4.5t51.5 3.5q26 1 45.5 -19t19.5 -45q-1 -59 -26 -116.5t-56 -96.5l-72.5 -93t-63.5 -94
q13 3 65 18t81 16q47 2 65 -44t-14 -78q-54 -55 -157 -74.5t-175 6.5z" />
    <glyph glyph-name="a" unicode="a" horiz-adv-x="443" 
d="M57 -9q-14 -14 -32.5 -3.5t-13.5 29.5q26 87 45 169q-11 13 -6.5 33.5t20.5 29.5q9 53 14 86q27 187 82 318q16 37 55 39.5t51 -39.5q74 -270 85 -307q7 -23 28.5 -88.5t33 -112.5t14.5 -91q2 -29 -21.5 -47.5t-53 -15t-40.5 30.5q-27 60 -50 156q-49 -18 -118 -13
q-29 -110 -93 -174zM168 259q30 3 77 11l-13 55q-18 63 -33 126q-3 -14 -31 -192z" />
    <glyph glyph-name="b" unicode="b" horiz-adv-x="330" 
d="M58 -41q-19 3 -30.5 20.5t-14.5 39.5q-6 66 5.5 147t28.5 146t29 146t6 146q-25 15 -25.5 45.5t22 52t55.5 13.5q86 -21 137 -85t49 -141.5t-61 -133.5q82 -119 19 -243q-37 -73 -93 -118t-127 -35zM168 448q25 25 25.5 55t-21.5 53q3 -48 -4 -108zM127 112q25 28 38 58
q33 66 -20 126q-19 -117 -18 -184z" />
    <glyph glyph-name="c" unicode="c" horiz-adv-x="351" 
d="M40 84q-27 57 -29 128.5t13 135.5t42 126q82 184 171 217q32 12 57 -0.5t36 -38t10 -56.5t-15 -55q-8 -13 -22.5 -12.5t-22.5 12.5q-8 14 -19 44q-2 -5 -9 -13.5t-8 -9.5q-40 -57 -67 -128q-41 -105 -42 -201q-3 -93 27 -115q6 -4 12.5 -5.5t13.5 0.5t12 4.5t13 9t11.5 9
t11.5 10.5l9 9q20 19 45 13t34.5 -27.5t-0.5 -47.5q-30 -60 -85.5 -86.5t-112 -6.5t-86.5 84z" />
    <glyph glyph-name="d" unicode="d" horiz-adv-x="393" 
d="M92 -67q-39 -7 -63.5 17.5t-17.5 63.5q9 45 26 160.5t31 176.5q5 21 18 66.5t21.5 81.5t11.5 69q-20 27 0 63q-2 18 -4 28q-7 38 27.5 47t48.5 -26l6 -15q63 -16 104.5 -52t58.5 -83t22 -104.5t-7 -115.5q-10 -61 -31 -120t-54.5 -114t-85 -93.5t-112.5 -49.5zM148 118
q68 68 97 202q23 106 3 154q-9 24 -36 43q-3 -38 -23 -141q-31 -160 -41 -258z" />
    <glyph glyph-name="e" unicode="e" horiz-adv-x="401" 
d="M55 -10q-19 3 -32.5 21.5t-12.5 37.5q4 113 46 306q6 28 15.5 91t21 110t32.5 86q16 29 51 19.5t33 -42.5q0 -2 -0.5 -6t-0.5 -6q17 5 51 13q2 0 14 3.5t15.5 4t14 2.5t16.5 2t14.5 0.5t15.5 -1t14 -4.5q21 -8 26.5 -27.5t-9.5 -36.5q-12 -13 -31 -20.5t-28 -9t-37 -5.5
q-41 -6 -88 -17q-4 -27 -41 -243q23 2 42 -1q31 -6 29 -38.5t-29 -41.5q-15 -5 -55 -7q-3 -23 -7 -69q11 1 75 10t99 7q39 -2 50.5 -40t-23.5 -58q-111 -64 -281 -40z" />
    <glyph glyph-name="f" unicode="f" horiz-adv-x="406" 
d="M48 -50q-21 4 -31 21.5t-7 38.5v2q0 17 8 31l5 8q7 19 20 67q10 38 26 114q-23 13 -21.5 43.5t32.5 39.5q1 1 3 1t3 1q28 148 43 243h-1q-27 2 -38 23.5t0 42.5t38 23q8 1 22 1q19 17 46 3q35 2 63 7q10 2 27.5 7t29.5 8t27 2t28 -9q18 -11 23 -31t-5 -39q-1 -1 -1 -2
q-7 -13 -22 -20t-29 -5q-1 0 -3 -0.5t-5 -1t-6 -0.5q-20 -4 -30 -5l-16.5 -2t-18.5 -2t-16 -2q-15 0 -22 -1q-1 -81 -20 -217q62 21 73 21q15 1 28 -11t12 -28q-2 -28 -23 -46.5t-45 -25t-60 -11.5q0 -1 -0.5 -4t-0.5 -5q-1 -10 -4.5 -39l-6.5 -52.5t-9.5 -56t-16 -55.5
t-22.5 -43.5t-33 -29.5t-44 -4z" />
    <glyph glyph-name="g" unicode="g" horiz-adv-x="408" 
d="M156 39q-41 0 -70 18t-42.5 45.5t-22 60.5t-7 63.5t1.5 54.5q5 62 13.5 109t26 101t49.5 98.5t78 77.5q74 54 138.5 32t76.5 -109q3 -19 -13 -28.5t-35.5 -4t-25.5 23.5q-25 78 -92 -8q-42 -53 -61 -104q-23 -71 -32 -179.5t12 -114.5q26 0 41 19.5t20.5 45t19.5 54.5
t37 43q32 19 63.5 0t34.5 -52q7 -71 7 -191q0 -40 -34 -57t-70 -2t-39 53q-18 -28 -32.5 -38.5t-42.5 -10.5z" />
    <glyph glyph-name="h" unicode="h" horiz-adv-x="365" 
d="M65 -15q-33 0 -47 27q-7 13 -8 29t1 27t7 29.5t7 28.5q9 45 14 114q-19 11 -18.5 35t24.5 32q11 140 16 356q1 22 17.5 32.5t35.5 4t26 -26.5q29 -77 35.5 -171t-2.5 -174h4q27 3 48 10q0 7 2 19q5 60 15 170.5l13 142.5q2 26 22 36t40 0t22 -36q15 -182 15 -327v-34v-4
q3 -60 1 -140t-15 -136q-7 -28 -27.5 -40t-42 -7.5t-40 22t-21.5 42.5q-9 68 4 183q-30 2 -47 4q-5 -125 -20 -173q-24 -76 -81 -75z" />
    <glyph glyph-name="i" unicode="i" horiz-adv-x="194" 
d="M44 71q-20 21 -25.5 51t-3 47.5t13.5 60.5t13 50q14 65 20 186t13 168q3 21 39.5 25.5t41.5 -18.5q27 -142 16 -311q-1 -11 -14.5 -89t-4.5 -115q9 -39 -33.5 -64t-75.5 9z" />
    <glyph glyph-name="j" unicode="j" horiz-adv-x="334" 
d="M43 16q-36 41 -32.5 107t45.5 102q21 18 45 11.5t33 -32.5q5 -12 9 -40q10 10 17 22q13 24 22 63q13 61 14 131t-3.5 157t-3.5 133q0 23 20.5 36t42 6.5t25.5 -30.5q4 -28 17 -101.5t18.5 -111t10 -104t-2 -111t-25 -98t-50.5 -96.5q-25 -34 -58 -56.5t-73.5 -23
t-70.5 35.5z" />
    <glyph glyph-name="k" unicode="k" horiz-adv-x="451" 
d="M135 65q-15 -35 -48.5 -35.5t-57.5 26.5t-17 61q14 68 38 146q2 20 4.5 61.5t4.5 61.5q3 32 10.5 91.5t12.5 108t7 91.5q1 24 18.5 33t36 -0.5t21.5 -32.5q6 -52 8 -127q44 44 91 76q21 15 43.5 9.5t34.5 -24t14.5 -41.5t-16.5 -42q-73 -74 -122 -196l8 -8q13 -10 60 -36
q55 -29 106 -49q41 -16 48 -57t-19 -69.5t-67 -12.5q-130 52 -184 87l-3 -10q-8 -52 -24 -95l-1 -1q-5 -13 -7 -16z" />
    <glyph glyph-name="l" unicode="l" horiz-adv-x="335" 
d="M270 185q30 -6 44 -27t10 -52q-4 -28 -34.5 -47.5t-73 -28t-78.5 -12t-63 -2.5t-46.5 19.5t-18.5 45.5q5 215 24 369q12 90 14 135q1 23 -3 66.5t-3 65.5q1 18 17 28t31 0q34 -22 49 -66t13 -88l-4 -87q-1 -10 -1 -15q-18 -220 -13 -332l44 12q5 1 22.5 6.5t27.5 7.5
q4 1 22.5 1.5t19.5 0.5zM266 186q-1 1 -4 1q3 0 4 -1zM266 186q4 0 4 -1z" />
    <glyph glyph-name="m" unicode="m" horiz-adv-x="485" 
d="M326 80q2 71 1.5 95t-7.5 95t-9 95q0 2 -6 86q-16 -34 -43 -56q-20 -16 -42 -16.5t-41 16.5q-22 21 -36 54q2 -22 2 -26q2 -206 -24 -313q-7 -29 -33.5 -37t-50.5 7.5t-24 44.5q-1 50 -8 159t-6 191t17 155q4 17 10 28.5t15.5 18.5t17 11t22 9.5t23.5 9.5q44 23 76 -20
q22 -30 39 -113l6 22q21 70 67 110q21 20 50.5 17t44.5 -29q13 -22 22.5 -48t14.5 -45t10 -53t6 -47.5l4 -54t4 -48.5q3 -36 11.5 -100.5t13 -117.5t0.5 -100q-3 -45 -41.5 -63t-74 0.5t-31.5 62.5z" />
    <glyph glyph-name="n" unicode="n" horiz-adv-x="405" 
d="M211 137q-35 78 -79 217q-1 -12 -1.5 -35t-0.5 -35q15 -80 2 -142q-5 -25 -24.5 -36t-40.5 -7.5t-38 19.5t-18 40q-4 55 0 139t12 162.5t32.5 133.5t60.5 53q17 -1 32.5 -21t29 -53.5t23.5 -66.5l22.5 -74t19.5 -61q0 3 0.5 8t1.5 7q2 15 7 66t8 76.5t11.5 64.5t19.5 67
q14 34 52.5 37t46.5 -37q7 -29 4.5 -75t-8 -77l-13.5 -76.5t-11 -75.5l-3.5 -43t-4.5 -48t-6.5 -42.5t-13 -46t-20.5 -38.5q-18 -27 -52.5 -29t-50.5 29z" />
    <glyph glyph-name="o" unicode="o" horiz-adv-x="363" 
d="M175 22q-40 -7 -75.5 12.5t-55.5 55.5q-27 47 -32 115t5 127t29 117q9 30 18.5 54.5t26 57t35 54t45.5 36t57 13.5q44 -3 75 -21.5t37 -51.5q41 -235 -43 -440q-47 -115 -122 -129zM155 167q4 10 13.5 29.5l16.5 35t11 30.5q41 156 5 292q-21 -34 -42 -136
q-29 -155 -10 -235z" />
    <glyph glyph-name="p" unicode="p" horiz-adv-x="376" 
d="M140 101q-6 -35 -38 -44t-60.5 9.5t-28.5 52.5q0 4 -2 102t0 142t15.5 118t40.5 120l12 41q6 16 20.5 23.5t30.5 5.5q28 18 55 24q72 20 131 -16t48 -111q-4 -29 -29 -60.5t-56.5 -51.5t-66.5 -19.5t-57 29.5q0 -12 0.5 -86t0 -102t-4.5 -81t-11 -96zM165 519
q5 5 11.5 8.5t11.5 5.5t14.5 5t14.5 5q33 12 48 32q13 17 -12 25q-32 10 -54 -16t-34 -65z" />
    <glyph glyph-name="q" unicode="q" horiz-adv-x="420" 
d="M338 -25l-9 3.5t-8 4.5l-6 4.5t-5.5 5.5t-5 5t-5 6t-4.5 6t-5 7.5t-5 7.5q-6 9 -19 25.5l-17 21.5q-67 -81 -158 -32q-117 62 -64 320q46 224 137 301q11 8 24 10q6 24 26 38t46 7q32 -9 53.5 -32.5t32.5 -51t14.5 -70t3 -73t-6.5 -78.5t-10 -68.5l-11 -58.5
q-11 -59 -33 -116q7 -9 21 -23.5l15 -15.5l22.5 -22t23 -23t15.5 -23t10 -31q3 -26 -22.5 -45t-49.5 -10zM153 173q6 6 9 13q21 37 44 149q14 78 16 136q4 62 -4 97q-3 12 -7 19q-12 -18 -20.5 -46.5t-13 -50t-9.5 -56t-7 -45.5q-15 -77 -8 -216z" />
    <glyph glyph-name="r" unicode="r" horiz-adv-x="381" 
d="M11 124q-2 72 16 268q2 21 4.5 61.5t4.5 66t6.5 60.5t11.5 63q5 19 23 27t35 2q55 31 112 5t75 -95q16 -60 -9.5 -103.5t-81.5 -81.5l69 -60q5 -4 19.5 -16.5l20.5 -17.5t17 -17t16.5 -20.5t11.5 -21t8 -25.5q7 -33 -15.5 -57t-55.5 -15q-18 6 -36 17.5t-28 20.5
t-28.5 29t-26.5 27q-12 12 -38 36q-2 -102 -4 -153q-1 -29 -20.5 -45.5t-43 -16.5t-43 16.5t-20.5 45.5zM149 489q30 14 43 31q22 33 5 56t-51 21q5 -43 3 -108z" />
    <glyph glyph-name="s" unicode="s" horiz-adv-x="334" 
d="M227 43q-50 -26 -105 -15t-87 57q-18 27 -6 55t39.5 37t55.5 -3q53 -31 55 35q1 53 -21 103l-2 4q-15 30 -61.5 82.5t-61.5 85.5q-21 43 -11 90t41.5 78t75.5 46t92 -5q23 -10 27.5 -32t-10 -38t-39.5 -10q-41 11 -58 -22.5t4 -63.5q12 -19 41 -50t35 -38q71 -86 82 -205
q11 -139 -86 -191z" />
    <glyph glyph-name="t" unicode="t" horiz-adv-x="468" 
d="M150 91q0 235 -1 252q-7 116 0 161q-70 6 -113 29q-26 13 -26 44.5t26 44.5q21 11 49 16.5t47.5 7t53.5 1.5t47 1q17 1 59.5 8.5t76 7t60.5 -15.5q21 -10 27.5 -33.5t-5.5 -43.5q-6 -11 -14 -20.5t-19.5 -16t-19.5 -11.5t-24.5 -8t-23 -5.5t-25.5 -3.5t-23 -1.5t-24 -0.5
l-21 -1l17 -115l3 -20l3.5 -23.5t2.5 -19.5q7 -68 10 -234q0 -43 -35.5 -61t-71.5 0t-36 61z" />
    <glyph glyph-name="u" unicode="u" horiz-adv-x="377" 
d="M165 38q-56 -1 -91.5 42.5t-47 110t-10.5 141t12.5 138t26.5 98.5q12 26 44 17t28 -37q-9 -70 6 -219q8 -85 22 -130q5 -25 12 -35q10 6 17.5 15t13 22t9.5 23.5t6.5 28l4 27.5t2 29.5t0.5 27v27v21.5q0 41 -5.5 120t-5.5 116q-1 25 13 42t34.5 21t40.5 0t34.5 -21
t14.5 -42q0 -20 2 -66.5t3.5 -86t0 -94t-7 -98.5t-18.5 -89.5t-32.5 -76.5t-52.5 -51t-76 -21z" />
    <glyph glyph-name="v" unicode="v" horiz-adv-x="320" 
d="M144 79q-22 -18 -51.5 -18.5t-50.5 18.5t-21 51q5 238 -11 527q-1 21 16 32t36.5 5t24.5 -26q24 -98 44 -222q3 19 9.5 69t10.5 76.5t14 65.5t24 69t42 32.5t51.5 -17.5t26.5 -48q3 -29 -1 -63t-12.5 -77t-11.5 -62q-10 -78 -22 -141q-11 -61 -21 -100t-35.5 -90.5
t-61.5 -80.5z" />
    <glyph glyph-name="w" unicode="w" horiz-adv-x="559" 
d="M204 64q-14 -20 -38.5 -26.5t-46 4t-28.5 37.5q-13 53 -29 155.5t-27 149.5q-2 7 -7.5 31l-7.5 32.5t-6.5 30t-6 32.5t-3 30.5t-0.5 33t3 30t7 31.5q16 52 43 68t46 -6.5t15 -68.5q-15 -158 19 -253v-1q15 67 55 114q22 25 58.5 15t43.5 -42q30 -139 35 -155q3 10 24 107
q12 50 41 139.5t39 127.5q8 30 38.5 39t56 -7t21.5 -48q-7 -62 -40 -173.5t-42 -152.5q-12 -51 -22 -83.5t-35 -72.5t-60 -60q-24 -14 -49.5 -6.5t-40.5 29.5q-15 25 -17 29q-9 -68 -39 -110z" />
    <glyph glyph-name="x" unicode="x" horiz-adv-x="411" 
d="M87 113q-14 -13 -35.5 -11.5t-30.5 19.5q-10 21 -11.5 44t5.5 47t17 47t26 48l29.5 44.5l30 43t25.5 37.5q-50 141 -41 211q4 30 32.5 40t45.5 -19q25 -42 44 -99q71 102 146 123q12 4 23 -6.5t7 -23.5q-11 -28 -42 -75t-34 -53q-23 -37 -54 -96l9 -25l10.5 -27l11 -28.5
l10 -27t10.5 -29.5l9 -27t9 -29.5t7.5 -27t7.5 -30t5 -28.5q5 -27 -6 -47.5t-30 -27.5t-39.5 -5.5t-36.5 18.5t-19 44q-8 68 -37 154q-5 -8 -14.5 -24.5t-14.5 -24.5q-9 -14 -21 -43t-24.5 -50.5t-29.5 -35.5z" />
    <glyph glyph-name="y" unicode="y" horiz-adv-x="328" 
d="M307 300q6 -131 -57 -194q-31 -31 -65.5 -36.5t-60 10.5t-44 44t-18 65t17.5 72q12 23 41.5 24t41.5 -24q3 -7 13 -27q5 22 5 53q-1 31 -5 95q-15 -6 -35 -6q-47 -2 -82.5 30.5t-44.5 80.5q-7 37 3 109q6 42 7 47q1 3 3 14q2 13 3 14t2 -6q-3 20 16.5 29.5t29.5 -10.5
q3 -6 11 -16t11 -18q6 -14 8 -66q0 -7 -0.5 -22t0.5 -27t4 -21q2 -6 8 -13.5t9 -12t1 -5.5q26 11 33 147q1 7 1 11v14h1q0 4 0.5 9t0.5 7q6 32 34 40t54.5 -8.5t27.5 -47.5q1 -65 12 -184t13 -171z" />
    <glyph glyph-name="z" unicode="z" horiz-adv-x="380" 
d="M82 78q-24 -2 -45 18.5t-19 44.5q4 36 15.5 76t28 87t23.5 73q29 106 59 159l40 72q10 18 6 20q-1 1 -20 2q-7 0 -32.5 1t-40 1.5t-35 4t-33.5 8.5q-16 6 -19 23.5t13 26.5q37 19 98.5 21t114.5 -23t55 -75q1 -26 -10 -55t-29 -63t-25 -51q-10 -27 -35 -141
q-5 -18 -29 -94q67 12 111 34q18 8 36.5 6t32.5 -14t22 -26.5t4.5 -32t-20.5 -30.5q-32 -26 -84 -42.5t-87.5 -21t-95.5 -9.5z" />
    <glyph glyph-name="sterling" unicode="&#xa3;" horiz-adv-x="407" 
d="M107 88q-38 -20 -69.5 10.5t-9.5 68.5q7 13 32 45t33 52q15 34 4 89q-2 0 -6.5 -0.5t-6.5 -0.5q-16 -1 -26 10t-12 25.5t5 27.5t23 15q-2 5 -10 27.5t-10 30l-7 27t-4.5 30t1 26.5t6.5 29.5t16 26.5q25 33 82 46t100.5 -9t31.5 -77q-4 -17 -21 -16.5t-22 16.5
q-9 15 -29.5 14.5t-34.5 -7.5q-33 -16 -20 -61q8 -25 34 -87q48 6 68 -17q18 -22 5 -40q-17 -23 -50 -28q10 -66 -3 -115q99 2 156 -33q23 -14 24 -42.5t-24 -41.5q-12 -6 -23.5 -8.5t-24 -2t-20.5 1.5t-24 5t-24 5q-11 5 -27 2.5t-24 -3t-22 -7l-21 -10l-22 -11.5z" />
    <glyph glyph-name="endash" unicode="&#x2013;" horiz-adv-x="431" 
d="M216 311q-13 0 -56 -1.5t-71 0t-54 7.5q-15 4 -15 27.5t15 27.5q26 6 54 8.5t71 3.5t56 2q62 6 95 6q4 0 17 1.5t20.5 2t18 -0.5t18.5 -4.5t14 -9.5q12 -11 12 -29.5t-12 -26.5q-11 -10 -25.5 -12.5t-38.5 -0.5t-28 2q-60 0 -91 -3z" />
    <glyph glyph-name="emdash" unicode="&#x2014;" horiz-adv-x="626" 
d="M314 311q-20 0 -84 -1.5t-106.5 0t-81.5 7.5q-22 4 -22 27.5t22 27.5q39 6 81 8.5t107 3.5t84 2q92 6 142 6q6 0 26 1.5t30.5 2t26.5 -0.5t28 -4.5t21 -9.5q18 -11 18 -29.5t-18 -26.5q-16 -10 -38 -12.5t-58.5 -0.5t-41.5 2q-90 0 -136 -3z" />
    <glyph glyph-name="quoteleft" unicode="&#x2018;" 
d="M90 785q7 -9 2.5 -21t-13.5 -22l-9 -11l18 -4q25 -6 24.5 -34.5t-24.5 -33.5q-33 -6 -54.5 19.5t-10.5 56.5q9 23 32.5 41.5t34.5 8.5z" />
    <glyph glyph-name="quoteright" unicode="&#x2019;" 
d="M43 661q-7 9 -2.5 21t13.5 22l9 11l-18 4q-25 6 -24.5 34.5t24.5 33.5q33 6 54.5 -19.5t10.5 -56.5q-9 -23 -32.5 -41.5t-34.5 -8.5z" />
    <glyph glyph-name="quotesinglbase" unicode="&#x201a;" 
d="M43 -46q-7 9 -2.5 21t13.5 23l9 10l-18 4q-25 6 -24.5 34.5t24.5 33.5q33 6 54.5 -19.5t10.5 -56.5q-9 -23 -32.5 -41.5t-34.5 -8.5z" />
    <glyph glyph-name="quotedblleft" unicode="&#x201c;" horiz-adv-x="247" 
d="M90 785q7 -9 2.5 -21t-13.5 -22l-9 -11l18 -4q25 -6 24.5 -34.5t-24.5 -33.5q-33 -6 -54.5 19.5t-10.5 56.5q9 23 32.5 41.5t34.5 8.5zM204 783q7 -9 2.5 -21t-13.5 -22l-9 -11l18 -4q25 -6 24.5 -34.5t-24.5 -33.5q-33 -6 -54.5 19.5t-10.5 56.5q9 23 32.5 41.5
t34.5 8.5z" />
    <glyph glyph-name="quotedblright" unicode="&#x201d;" horiz-adv-x="247" 
d="M43 661q-7 9 -2.5 21t13.5 22l9 11l-18 4q-25 6 -24.5 34.5t24.5 33.5q33 6 54.5 -19.5t10.5 -56.5q-9 -23 -32.5 -41.5t-34.5 -8.5zM157 659q-7 9 -2.5 21t13.5 22l9 11l-18 4q-25 6 -24.5 34.5t24.5 33.5q33 6 54.5 -19.5t10.5 -56.5q-9 -23 -32.5 -41.5t-34.5 -8.5z
" />
    <glyph glyph-name="quotedblbase" unicode="&#x201e;" 
d="M45 80q33 6 54.5 -19.5t10.5 -56.5q-9 -23 -32.5 -41.5t-34.5 -8.5q-7 9 -2.5 21t13.5 23l9 10l-18 4q-25 6 -24.5 34.5t24.5 33.5z" />
    <glyph glyph-name="Euro" unicode="&#x20ac;" horiz-adv-x="556" 
d="M290 16q-77 20 -132.5 84t-73.5 144q-10 3 -33 5q-19 2 -19 21t19 21q10 0 26 2q0 38 4 70q-19 3 -34 10q-22 9 -26.5 31.5t10 38.5t38.5 8q16 -4 32 -6q22 65 60 118.5t86 87.5t108 31t118 -50q31 -25 4 -59t-60 -14q-50 30 -93 -4t-72 -104q45 9 62 9q30 1 40.5 -27
t-9.5 -49q-30 -34 -121 -34q-2 -20 -2 -29q50 17 73 14q23 -2 35.5 -21t-0.5 -41q-24 -37 -84 -44q30 -55 76 -72q28 -10 54.5 -0.5t58 32t47.5 29.5q20 8 35.5 -0.5t17.5 -29.5q7 -61 -31.5 -107t-98.5 -63t-115 -2z" />
    </font>
</defs>
</svg>
